# xmcd
#
# Track frame offsets: 
#        182
#        17627
#        42762
#        64517
#        85502
#        105362
#        125352
#        151782
#        167537
#        186305
#        200917
#        223047
#        238872
#        257452
#        274815
#        293077
#        311647
#
# Disc length: 4384 seconds
#
# Revision: 1
# Processed by: cddbd v1.5.2PL0 Copyright (c) Steve Scherf et al.
# Submitted via: ExactAudioCopy v0.99pb4
#
DISCID=e4111e11
DTITLE=The Blackbyrds - Action and Better Days
DYEAR=1994
DGENRE=Jazz+Funk
TTITLE0=Supernatural Feeling
TTITLE1=Lookin' Ahead
TTITLE2=Mysterious Vibes
TTITLE3=Something Special
TTITLE4=Street Games
TTITLE5=Soft And Easy
TTITLE6=Dreaming About You
TTITLE7=Dancin' Dancin'
TTITLE8=Lonelies For Your Love
TTITLE9=Better Days
TTITLE10=Do It Girl
TTITLE11=Without Your Love
TTITLE12=Do You Wanna Dance
TTITLE13=Love Don't Strike Twice
TTITLE14=What's On Your Mind
TTITLE15=Don't Know What To Say
TTITLE16=What We Have Is Right
EXTD=YEAR: 1977
EXTT0=
EXTT1=
EXTT2=
EXTT3=
EXTT4=
EXTT5=
EXTT6=
EXTT7=
EXTT8=
EXTT9=
EXTT10=
EXTT11=
EXTT12=
EXTT13=
EXTT14=
EXTT15=
EXTT16=
PLAYORDER=
